<?xml version="1.0" encoding="UTF-8"?>
<svg width="365.1pt" height="366pt" preserveAspectRatio="xMidYMid" version="1.0" viewBox="0 0 365.1 366" xml:space="preserve" xmlns="http://www.w3.org/2000/svg"><metadata>
Created by potrace 1.15, written by Peter Selinger 2001-2017
</metadata><path d="m182.55 92.835c-41.649 50.092-66.638 75.139-66.638 110.2 0 37.569 31.653 70.129 66.638 70.129s66.638-32.56 66.638-70.129c0-35.065-24.989-60.111-66.638-110.2z" fill="#4d331e" stroke-width=".7222"/><path d="m200 0-4.5 12.8-4.5 12.7-21 0.60059-4.5-12.601c-3.1-8.5-5-12.5-6-12.5-0.8 0.1-5.5 0.89883-10.5 1.7988l-9 1.7007-0.29883 14.101-0.30029 14.199-9.1011 3.1011c-5.9 1.9-9.5993 2.6991-10.299 2.0991-0.6-0.5-4.5001-5.2-8.6001-10.5-5-6.5-7.8996-9.3996-9.0996-9.0996-0.9 0.2-5.2006 2.5006-9.6006 5.1006l-7.8999 4.6992 3.7998 11.7c2.1 6.4 4.0008 12.3 4.3008 13.1 0.4 1-1.8001 3.4-7.1001 7.5-4.2 3.3-7.8998 5.9008-8.2998 5.8008s-5.7-3.2005-12-7.0005l-11.3-6.7002-5.5005 5.9004c-9.6 10.5-9.6003 8.9-0.30029 21 4.5 5.8 8.1006 10.7 8.1006 10.9 0 0.6-8.8998 14.9-9.7998 15.8-0.5 0.5-6.8002-0.4002-14.2-2.2002-7.3-1.7-13.401-2.8993-13.601-2.7993-1.1 1.3-7.4001 18.299-7.1001 19.299 0.4 0.9 9.7006 7.5003 21.601 15.3 0.3 0.1-0.50029 4.5006-1.8003 9.6006-2.6 10.8-0.69932 9.6997-19.299 11.7l-10.6 1.1997-0.80127 9.6006c-0.5 5.3-0.89941 9.9996-0.89941 10.6 0 0.5 5.5995 2.6 12.5 4.5 6.9 2 13.1 3.8001 13.9 4.1001 1 0.3 1.5003 3.0994 1.8003 9.8994l0.50098 9.501-12.201 5.3994c-6.6 3-12.301 5.8007-12.601 6.2007-0.4 0.7 4.3006 19.9 5.1006 20.7 0.2 0.2 6.5006-0.10019 14.101-0.70019s13.9-0.99981 14-0.79981c0.2 0.1 2.0997 4.0997 4.1997 8.6997l3.9009 8.5005-21 20 5.7993 8.7993c3.2 4.8 6.2994 8.7012 6.8994 8.7012s6.7-2.5005 13.5-5.5005l12.501-5.5005 6.1992 6.7002c3.5 3.8 6.2999 7.1004 6.3999 7.4004 0 0.3-2.8995 6.0002-6.4995 12.7-3.6 6.8-6.4995 12.6-6.4995 13.1 0 0.7 12 10.2 15.8 12.5 0.9 0.5 4.4995-2.2006 11-8.1006 5.3-4.9 10.3-9.2987 11-9.6987 1.1-0.7 15.501 6.4987 16.601 8.1987 0.2 0.4-0.5 6.5007-1.5 13.701-1.1 7.2-1.8007 13.599-1.7007 14.399 0.3 1.1 16.801 8.1006 19.301 8.1006 0.6 0 3.5998-5.0998 6.7998-11.3 8.5-16.4 6.9001-15.1 17.6-13.2 8.4 1.6 8.9995 1.8993 9.4995 4.2993 0.3 1.5 1.4997 8.0005 2.6997 14.5l2.2002 11.7h21.3l2.6997-14.2c1.4-7.7 3.1002-14.399 3.7002-14.799 1.2-0.8 17-3.3008 17.5-2.8008 0.2 0.2 3.399 5.7003 6.999 12.3 3.7 6.6 7.1 12.399 7.5 12.899 0.8 0.8 15.9-3.4994 19-5.3994 1-0.6 0.79951-3.6993-1.0005-14.799-1.2-7.8-1.9992-14.701-1.6992-15.501 0.5-1.4 13.6-8.6997 15.7-8.6997 0.6 0 5.8997 4.2995 11.7 9.4995 5.9 5.2 11 9.501 11.5 9.501 0.4 0 4.3997-2.8007 8.6997-6.2007l7.9995-6.1992-2.3994-4.0005c-1.3-2.3-4.6004-8.3-7.4004-13.5l-4.8999-9.4995 6-6.8013c3.4-3.7 6.7004-6.7998 7.4004-6.7998 0.8 0 7.2994 2.5001 14.399 5.6001 7.2 3.1 13.3 5.4998 13.5 5.2998 1.2-1.2 10.5-16.099 10.5-16.799 0-0.5-4.7-5.401-10.5-11.001-5.8-5.5-10.5-10.4-10.5-10.8 0-0.5 1.6002-4.4996 3.7002-9.0996l3.7002-8.2998 8.499 0.60059c4.7 0.3 11.601 0.8001 15.201 1.1001l6.7002 0.59912 2.2002-9.5991c1.2-5.3 1.9992-10.2 1.6992-10.9s-6.1997-3.7002-13.2-6.7002-12.9-6.001-13.1-6.501c-0.2-0.6-1e-4 -4.999 0.3999-9.999l0.7002-8.9004 7.5-2.2002c4.1-1.3 10.7-3.1993 14.5-4.2993l7.1001-2.1006-1.1001-9.8994c-0.5-5.5-1.2-10.2-1.5-10.4-0.3-0.3-6.8005-1.1007-14.5-1.7007-7.7-0.7-14.2-1.3996-14.3-1.5996-0.2-0.1-1.5008-4.4006-2.8008-9.6006-2.3-8.8-2.2991-9.3996-0.59912-10.6 0.9-0.7 6.4-4.4998 12-8.2998 11.8-8.1 11.399-6.8001 5.7993-19.1l-3.5991-7.5996-13.201 3.3999c-7.3 1.9-13.999 3.3999-14.799 3.3999-1.3 0-11-14.6-11-16.5 0-0.5 3.799-5.8996 8.499-12.1 4.7-6.3 8.5005-11.8 8.5005-12.3 0-1.7-14.2-14.1-15.4-13.4-0.6 0.3-6.1003 3.8999-12.3 7.8999l-11.2 7.3008-7.5996-6.1011c-4.1-3.3-7.5-6.4986-7.5-7.0986s1.8001-6.901 4.1001-14.001c2.2-7.1 3.9002-13 3.7002-13.2-0.2-0.1-4.3999-2.3003-9.3999-4.8003l-9.1011-4.5996-7.3989 9.6006c-4.1 5.2-7.9001 10.1-8.6001 11-1 1.3-2.4002 1.0997-11.2-1.8003l-10.1-3.3003v-14.3c0-7.9-0.3002-14.3-0.7002-14.3-0.8 0-10.8-1.5005-16.8-2.5005l-3-0.49951zm-17.449 58.698a124.3 124.3 0 0 1 124.3 124.3 124.3 124.3 0 0 1-124.3 124.3 124.3 124.3 0 0 1-124.3-124.3 124.3 124.3 0 0 1 124.3-124.3z" fill="#b2511f"/></svg>
